<svg width="50" height="50" viewBox="0 0 50 50" fill="none" xmlns="http://www.w3.org/2000/svg">
<g clip-path="url(#clip0_121_1110)">
<path d="M25 50C11.1922 50 0 38.8078 0 25C0 11.1922 11.1922 0 25 0C38.8078 0 50 11.1922 50 25C50 31.6304 47.3661 37.9893 42.6777 42.6777C37.9893 47.3661 31.6304 50 25 50ZM25 3.125C12.9187 3.125 3.125 12.9187 3.125 25C3.125 37.0812 12.9187 46.875 25 46.875C37.0812 46.875 46.875 37.0812 46.875 25C46.875 19.1984 44.5703 13.6344 40.468 9.53204C36.3656 5.42968 30.8016 3.125 25 3.125Z" fill="#444444" fill-opacity="0.55"/>
<path d="M35.9375 23.4375H26.5625V14.0625H23.4375V23.4375H14.0625V26.5625H23.4375V35.9375H26.5625V26.5625H35.9375V23.4375Z" fill="#444444" fill-opacity="0.55"/>
</g>
<defs>
<clipPath id="clip0_121_1110">
<rect width="50" height="50" fill="white"/>
</clipPath>
</defs>
</svg>
