<svg width="40" height="40" viewBox="0 0 40 40" fill="none" xmlns="http://www.w3.org/2000/svg">
<path d="M37.6298 4.41873L35.0635 3.2404V22.2409L39.7173 9.91057C40.5026 7.76434 39.6024 5.30247 37.6298 4.41873ZM0.284115 12.2041L9.78333 37.3488C10.063 38.1138 10.5402 38.7723 11.156 39.2434C11.7719 39.7144 12.4997 39.9774 13.2498 40C13.7477 40 14.2648 39.8948 14.7628 39.6633L28.8775 33.2457C30.3139 32.5934 31.1949 31.0363 31.2332 29.4792C31.2523 28.9321 31.1566 28.3219 30.9842 27.7749L21.4084 2.63019C21.1386 1.85945 20.6634 1.19609 20.0449 0.726826C19.4265 0.257566 18.6935 0.0042506 17.9419 0C17.444 0 16.946 0.12625 16.4672 0.315624L2.37164 6.7333C1.43467 7.15486 0.688429 7.96797 0.296971 8.99386C-0.0944864 10.0198 -0.0991105 11.1745 0.284115 12.2041ZM31.214 4.20831C31.214 3.0922 30.8105 2.0218 30.0921 1.23259C29.3738 0.443374 28.3995 0 27.3837 0H24.6067L31.214 17.5487" fill="#D2544A"/>
</svg>
