<svg width="40" height="40" viewBox="0 0 40 40" fill="none" xmlns="http://www.w3.org/2000/svg">
<path d="M20 2.6665L0 11.9998L5.33333 14.3998V18.9332C3.73333 19.4665 2.66667 21.0665 2.66667 22.6665C2.66667 24.2665 3.73333 25.8665 5.33333 26.3998V26.6665L2.93333 32.2665C2.13333 34.6665 2.66667 37.3332 6.66667 37.3332C10.6667 37.3332 11.2 34.6665 10.4 32.2665L8 26.6665C9.6 25.8665 10.6667 24.5332 10.6667 22.6665C10.6667 20.7998 9.6 19.4665 8 18.9332V15.7332L20 21.3332L40 11.9998L20 2.6665ZM31.7333 19.9998L19.7333 25.3332L13.3333 22.3998V22.6665C13.3333 24.5332 12.5333 26.1332 11.2 27.4665L12.8 31.1998V31.4665C13.0667 32.5332 13.3333 33.5998 13.0667 34.6665C14.9333 35.4665 17.0667 35.9998 19.7333 35.9998C28.5333 35.9998 31.7333 30.6665 31.7333 27.9998V19.9998Z" fill="#D2544A"/>
</svg>
