<svg width="40" height="40" viewBox="0 0 40 40" fill="none" xmlns="http://www.w3.org/2000/svg">
<path d="M20.18 34.2857H4V7.61905H0V34.2857C0 35.2961 0.421427 36.265 1.17157 36.9795C1.92172 37.6939 2.93913 38.0952 4 38.0952H21.62C20.8845 36.9267 20.3953 35.6327 20.18 34.2857ZM32 0H22V9.52381L18 6.66667L14 9.52381V0H12C10.9391 0 9.92172 0.401359 9.17157 1.11578C8.42143 1.83021 8 2.79918 8 3.80952V26.6667C8 27.677 8.42143 28.646 9.17157 29.3604C9.92172 30.0748 10.9391 30.4762 12 30.4762H20.18C20.4713 28.8336 21.136 27.2715 22.1278 25.8993C23.1196 24.527 24.4143 23.3779 25.9214 22.5323C27.4285 21.6867 29.1114 21.1652 30.8524 21.0041C32.5933 20.8431 34.3502 21.0464 36 21.6V3.80952C36 2.79918 35.5786 1.83021 34.8284 1.11578C34.0783 0.401359 33.0609 0 32 0ZM34 24.7619V30.4762H40V34.2857H34V40H30V34.2857H24V30.4762H30V24.7619H34Z" fill="#D2544A"/>
</svg>
