<svg width="40" height="40" viewBox="0 0 40 40" fill="none" xmlns="http://www.w3.org/2000/svg">
<path fill-rule="evenodd" clip-rule="evenodd" d="M21.3175 38.9318L21.293 38.9356L21.1353 39.0029L21.0908 39.0106L21.0597 39.0029L20.902 38.9356C20.8783 38.9292 20.8605 38.9324 20.8486 38.9452L20.8397 38.9644L20.802 39.7869L20.8131 39.8254L20.8353 39.8503L21.0664 39.9925L21.0997 40.0002L21.1264 39.9925L21.3575 39.8503L21.3841 39.8196L21.393 39.7869L21.3552 38.9664C21.3493 38.9459 21.3367 38.9343 21.3175 38.9318ZM21.9063 38.7146L21.8774 38.7185L21.4663 38.8972L21.4441 38.9164L21.4374 38.9375L21.4774 39.7639L21.4886 39.7869L21.5063 39.8004L21.9529 39.9791C21.9811 39.9855 22.0026 39.9804 22.0174 39.9637L22.0263 39.9368L21.9507 38.7569C21.9433 38.7338 21.9285 38.7197 21.9063 38.7146ZM20.3176 38.7185C20.3078 38.7133 20.2961 38.7117 20.2849 38.7138C20.2737 38.716 20.2639 38.7217 20.2576 38.73L20.2442 38.7569L20.1687 39.9368C20.1702 39.9599 20.1828 39.9753 20.2065 39.9829L20.2398 39.9791L20.6864 39.8004L20.7086 39.785L20.7175 39.7639L20.7553 38.9375L20.7486 38.9145L20.7264 38.8953L20.3176 38.7185Z" fill="#D2544A"/>
<path fill-rule="evenodd" clip-rule="evenodd" d="M26.6659 5.76673C26.6666 6.95944 26.2396 8.12299 25.4437 9.09701C24.6478 10.071 23.5222 10.8076 22.222 11.2052V15.3753H28.8879C30.6558 15.3753 32.3513 15.9826 33.6014 17.0638C34.8515 18.145 35.5538 19.6114 35.5538 21.1404V23.3888C37.037 23.8421 38.2871 24.7343 39.0831 25.9077C39.8792 27.0812 40.1699 28.4602 39.904 29.8011C39.6381 31.142 38.8326 32.3584 37.63 33.2353C36.4273 34.1123 34.9049 34.5932 33.3318 34.5932C31.7588 34.5932 30.2364 34.1123 29.0337 33.2353C27.8311 32.3584 27.0256 31.142 26.7597 29.8011C26.4937 28.4602 26.7845 27.0812 27.5806 25.9077C28.3766 24.7343 29.6267 23.8421 31.1099 23.3888V21.1404C31.1099 20.6307 30.8758 20.1419 30.4591 19.7815C30.0424 19.4211 29.4772 19.2187 28.8879 19.2187H11.1121C10.5228 19.2187 9.95763 19.4211 9.54093 19.7815C9.12423 20.1419 8.89013 20.6307 8.89013 21.1404V23.3888C10.3733 23.8421 11.6234 24.7343 12.4194 25.9077C13.2155 27.0812 13.5063 28.4602 13.2403 29.8011C12.9744 31.142 12.1689 32.3584 10.9663 33.2353C9.76362 34.1123 8.24121 34.5932 6.66816 34.5932C5.0951 34.5932 3.5727 34.1123 2.37003 33.2353C1.16737 32.3584 0.361893 31.142 0.0959783 29.8011C-0.169937 28.4602 0.120832 27.0812 0.916889 25.9077C1.71295 24.7343 2.96303 23.8421 4.44618 23.3888V21.1404C4.44618 19.6114 5.14848 18.145 6.39859 17.0638C7.64869 15.9826 9.34419 15.3753 11.1121 15.3753H17.778V11.2052C16.6252 10.8532 15.6064 10.2338 14.833 9.41483C14.0597 8.59585 13.5616 7.60874 13.3932 6.56144C13.2248 5.51413 13.3925 4.44694 13.8781 3.47653C14.3637 2.50612 15.1484 1.66985 16.1465 1.05915C17.1446 0.448438 18.3176 0.0868018 19.5372 0.013773C20.7569 -0.0592558 21.9763 0.159134 23.0622 0.645067C24.148 1.131 25.0585 1.86577 25.6941 2.76905C26.3297 3.67233 26.6659 4.70935 26.6659 5.76673ZM20 3.84503C19.4107 3.84503 18.8455 4.04749 18.4288 4.40788C18.0121 4.76827 17.778 5.25706 17.778 5.76673C17.778 6.2764 18.0121 6.76519 18.4288 7.12558C18.8455 7.48597 19.4107 7.68844 20 7.68844C20.5893 7.68844 21.1545 7.48597 21.5712 7.12558C21.9879 6.76519 22.222 6.2764 22.222 5.76673C22.222 5.25706 21.9879 4.76827 21.5712 4.40788C21.1545 4.04749 20.5893 3.84503 20 3.84503ZM6.66816 26.9055C6.07885 26.9055 5.51369 27.1079 5.09698 27.4683C4.68028 27.8287 4.44618 28.3175 4.44618 28.8272C4.44618 29.3369 4.68028 29.8257 5.09698 30.186C5.51369 30.5464 6.07885 30.7489 6.66816 30.7489C7.25746 30.7489 7.82263 30.5464 8.23933 30.186C8.65603 29.8257 8.89013 29.3369 8.89013 28.8272C8.89013 28.3175 8.65603 27.8287 8.23933 27.4683C7.82263 27.1079 7.25746 26.9055 6.66816 26.9055ZM33.3318 26.9055C32.7425 26.9055 32.1774 27.1079 31.7607 27.4683C31.344 27.8287 31.1099 28.3175 31.1099 28.8272C31.1099 29.3369 31.344 29.8257 31.7607 30.186C32.1774 30.5464 32.7425 30.7489 33.3318 30.7489C33.9211 30.7489 34.4863 30.5464 34.903 30.186C35.3197 29.8257 35.5538 29.3369 35.5538 28.8272C35.5538 28.3175 35.3197 27.8287 34.903 27.4683C34.4863 27.1079 33.9211 26.9055 33.3318 26.9055Z" fill="#D2544A"/>
</svg>
