<svg width="50" height="35" viewBox="0 0 50 35" fill="none" xmlns="http://www.w3.org/2000/svg">
<path d="M28.125 3.125C28.125 2.2962 27.7958 1.50134 27.2097 0.915291C26.6237 0.32924 25.8288 0 25 0C24.1712 0 23.3763 0.32924 22.7903 0.915291C22.2042 1.50134 21.875 2.2962 21.875 3.125C21.875 3.9538 22.2042 4.74866 22.7903 5.33471C23.3763 5.92076 24.1712 6.25 25 6.25C25.8288 6.25 26.6237 5.92076 27.2097 5.33471C27.7958 4.74866 28.125 3.9538 28.125 3.125ZM11.25 13.75C12.0788 13.75 12.8737 13.4208 13.4597 12.8347C14.0458 12.2487 14.375 11.4538 14.375 10.625C14.375 9.7962 14.0458 9.00134 13.4597 8.41529C12.8737 7.82924 12.0788 7.5 11.25 7.5C10.4212 7.5 9.62634 7.82924 9.04029 8.41529C8.45424 9.00134 8.125 9.7962 8.125 10.625C8.125 11.4538 8.45424 12.2487 9.04029 12.8347C9.62634 13.4208 10.4212 13.75 11.25 13.75ZM2.5 30C1.11719 30 0 31.1172 0 32.5C0 33.8828 1.11719 35 2.5 35H47.5C48.8828 35 50 33.8828 50 32.5C50 31.1172 48.8828 30 47.5 30H2.5ZM38.75 13.75C39.5788 13.75 40.3737 13.4208 40.9597 12.8347C41.5458 12.2487 41.875 11.4538 41.875 10.625C41.875 9.7962 41.5458 9.00134 40.9597 8.41529C40.3737 7.82924 39.5788 7.5 38.75 7.5C37.9212 7.5 37.1263 7.82924 36.5403 8.41529C35.9542 9.00134 35.625 9.7962 35.625 10.625C35.625 11.4538 35.9542 12.2487 36.5403 12.8347C37.1263 13.4208 37.9212 13.75 38.75 13.75ZM15.625 21.9922L17.7266 25.8906C18.2188 26.8047 19.3516 27.1406 20.2656 26.6562C21.1797 26.1719 21.5156 25.0312 21.0312 24.1172L18.1953 18.8438C18.3281 18.7109 18.4453 18.5625 18.5312 18.3906L20.625 14.4922V18.75C20.625 20.1328 21.7422 21.25 23.125 21.25H26.875C28.2578 21.25 29.375 20.1328 29.375 18.75V14.4922L31.4766 18.3906C31.5703 18.5625 31.6797 18.7109 31.8125 18.8438L28.9766 24.1172C28.4844 25.0312 28.8281 26.1641 29.7422 26.6562C30.6562 27.1484 31.7891 26.8047 32.2812 25.8906L34.375 21.9922V25C34.375 26.3828 35.4922 27.5 36.875 27.5H40.625C42.0078 27.5 43.125 26.3828 43.125 25V21.9922L45.2266 25.8906C45.7188 26.8047 46.8516 27.1406 47.7656 26.6562C48.6797 26.1719 49.0156 25.0312 48.5312 24.1172L45.5703 18.625C44.375 16.3984 42.0469 15.0078 39.5156 15.0078H37.9922C36.7188 15.0078 35.5 15.3594 34.4453 15.9922L31.8203 11.125C30.625 8.89844 28.2969 7.50781 25.7656 7.50781H24.2422C21.7109 7.50781 19.3906 8.89844 18.1875 11.125L15.5625 15.9922C14.5078 15.3594 13.2891 15.0078 12.0156 15.0078H10.4922C7.96094 15.0078 5.64062 16.3984 4.4375 18.625L1.47656 24.1094C0.984375 25.0234 1.32812 26.1562 2.24219 26.6484C3.15625 27.1406 4.28906 26.7969 4.78125 25.8828L6.875 21.9922V25C6.875 26.3828 7.99219 27.5 9.375 27.5H13.125C14.5078 27.5 15.625 26.3828 15.625 25V21.9922Z" fill="#F24822"/>
</svg>
