<svg width="40" height="40" viewBox="0 0 40 40" fill="none" xmlns="http://www.w3.org/2000/svg">
<path d="M9.52381 3.80952V0H13.3333V3.80952H24.7619V0H28.5714V3.80952H36.1905C36.6957 3.80952 37.1801 4.0102 37.5373 4.36742C37.8946 4.72463 38.0952 5.20911 38.0952 5.71429V15.2381H34.2857V7.61905H28.5714V11.4286H24.7619V7.61905H13.3333V11.4286H9.52381V7.61905H3.80952V34.2857H15.2381V38.0952H1.90476C1.39959 38.0952 0.915104 37.8946 0.557892 37.5373C0.20068 37.1801 0 36.6957 0 36.1905V5.71429C0 5.20911 0.20068 4.72463 0.557892 4.36742C0.915104 4.0102 1.39959 3.80952 1.90476 3.80952H9.52381ZM28.5714 20.9524C26.5507 20.9524 24.6128 21.7551 23.1839 23.1839C21.7551 24.6128 20.9524 26.5507 20.9524 28.5714C20.9524 30.5921 21.7551 32.5301 23.1839 33.9589C24.6128 35.3878 26.5507 36.1905 28.5714 36.1905C30.5921 36.1905 32.5301 35.3878 33.9589 33.9589C35.3878 32.5301 36.1905 30.5921 36.1905 28.5714C36.1905 26.5507 35.3878 24.6128 33.9589 23.1839C32.5301 21.7551 30.5921 20.9524 28.5714 20.9524ZM17.1429 28.5714C17.1429 27.0706 17.4385 25.5845 18.0128 24.1979C18.5871 22.8113 19.429 21.5514 20.4902 20.4902C21.5514 19.429 22.8113 18.5871 24.1979 18.0128C25.5845 17.4385 27.0706 17.1429 28.5714 17.1429C30.0723 17.1429 31.5584 17.4385 32.945 18.0128C34.3315 18.5871 35.5914 19.429 36.6526 20.4902C37.7139 21.5514 38.5557 22.8113 39.1301 24.1979C39.7044 25.5845 40 27.0706 40 28.5714C40 31.6025 38.7959 34.5094 36.6526 36.6526C34.5094 38.7959 31.6025 40 28.5714 40C25.5404 40 22.6335 38.7959 20.4902 36.6526C18.3469 34.5094 17.1429 31.6025 17.1429 28.5714ZM26.6667 22.8571V29.36L31.0343 33.7276L33.7276 31.0343L30.4762 27.7829V22.8571H26.6667Z" fill="#D2544A"/>
</svg>
